<svg width="126" height="32" viewBox="0 0 126 32" fill="none" xmlns="http://www.w3.org/2000/svg">
    <path
        d="M18.9066 0H0V32H17.7711C25.2819 32 31.3652 28.5478 31.3652 16.0008C31.3652 5.24463 27.0775 0 18.9066 0ZM7.79352 10.265C8.06432 10.265 8.32904 10.3453 8.5542 10.4958C8.77936 10.6462 8.95486 10.8601 9.05849 11.1102C9.16212 11.3604 9.18923 11.6357 9.1364 11.9013C9.08357 12.1669 8.95317 12.4109 8.76168 12.6024C8.5702 12.7939 8.32623 12.9243 8.06063 12.9771C7.79503 13.0299 7.51974 13.0028 7.26955 12.8992C7.01936 12.7955 6.80552 12.6201 6.65507 12.3949C6.50462 12.1697 6.42432 11.905 6.42432 11.6342C6.42411 11.4543 6.45938 11.2761 6.52809 11.1098C6.59681 10.9435 6.69763 10.7923 6.82479 10.665C6.95195 10.5377 7.10296 10.4367 7.26918 10.3678C7.43541 10.2989 7.61358 10.2634 7.79352 10.2634V10.265ZM9.28115 21.427C8.73723 21.4273 8.20544 21.2663 7.75305 20.9643C7.30066 20.6623 6.94802 20.2329 6.73972 19.7305C6.53143 19.228 6.47685 18.6751 6.58288 18.1416C6.68892 17.6081 6.95081 17.118 7.33542 16.7334C7.72004 16.3488 8.21009 16.0869 8.74357 15.9809C9.27706 15.8749 9.83001 15.9294 10.3325 16.1377C10.8349 16.346 11.2643 16.6987 11.5663 17.1511C11.8683 17.6034 12.0293 18.1352 12.029 18.6792C12.0282 19.4075 11.7384 20.1058 11.2232 20.6207C10.708 21.1356 10.0095 21.425 9.28115 21.4255V21.427ZM17.67 21.3275C17.4281 21.4497 17.1644 21.5227 16.8942 21.5424C16.6239 21.5621 16.3524 21.5281 16.0953 21.4423C15.8383 21.3566 15.6007 21.2208 15.3964 21.0428C15.1921 20.8648 15.025 20.6482 14.9048 20.4053L11.252 13.0982C11.1061 12.8131 11.0292 12.4977 11.0278 12.1775C11.0267 11.7126 11.1829 11.261 11.4709 10.8961C11.7589 10.5311 12.1619 10.2743 12.6143 10.1673C13.0667 10.0603 13.542 10.1093 13.9629 10.3066C14.3839 10.5038 14.7259 10.8375 14.9332 11.2536L18.586 18.5607C18.8309 19.0489 18.872 19.6144 18.7003 20.1329C18.5285 20.6514 18.158 21.0805 17.67 21.326V21.3275ZM23.8006 21.3275C23.5584 21.4488 23.2947 21.5212 23.0245 21.5405C22.7543 21.5598 22.483 21.5256 22.226 21.44C21.9691 21.3543 21.7315 21.2188 21.5269 21.0413C21.3223 20.8638 21.1548 20.6476 21.0338 20.4053L17.381 13.0982C17.26 12.856 17.1879 12.5924 17.1688 12.3224C17.1496 12.0524 17.1838 11.7813 17.2695 11.5245C17.3551 11.2678 17.4905 11.0304 17.6679 10.8259C17.8453 10.6215 18.0612 10.4539 18.3033 10.3329C18.5454 10.2119 18.809 10.1398 19.079 10.1206C19.349 10.1015 19.6202 10.1357 19.8769 10.2214C20.1337 10.307 20.3711 10.4424 20.5756 10.6198C20.78 10.7972 20.9475 11.0131 21.0685 11.2552L24.7213 18.5623C24.9654 19.0509 25.0055 19.6165 24.8329 20.1347C24.6603 20.6529 24.289 21.0814 23.8006 21.326V21.3275Z"
        fill="#A2FF00" />
    <path d="M37.6821 1.41821H45.5561V3.07167H42.8414V8.79639H40.3826V3.07167H37.6821V1.41821Z"
        fill="#A2FF00" />
    <path
        d="M46.1168 1.23169H48.3072V4.00167H48.3277C48.7099 3.45367 49.5058 3.05413 50.6223 3.05413C51.9962 3.05413 52.9991 3.71425 52.9991 5.10713V8.79622H50.8087V5.76725C50.8087 5.05501 50.4154 4.70442 49.6716 4.70442C48.8962 4.70442 48.3072 5.13713 48.3072 6.04677V8.79622H46.1168V1.23169Z"
        fill="#A2FF00" />
    <path
        d="M61.5553 7.13968C61.2853 8.06985 60.2209 9.03476 57.8347 9.03476C55.3079 9.03476 53.9087 8.07458 53.9087 5.99789C53.9087 4.01438 55.4579 2.97998 57.7731 2.97998C60.1704 2.97998 61.658 4.02385 61.658 6.35954V6.51746H56.1591C56.2728 7.24075 56.7908 7.76664 57.9152 7.76664C58.171 7.78026 58.4261 7.72958 58.6573 7.61924C58.8885 7.50889 59.0883 7.34239 59.2386 7.13494L61.5553 7.13968ZM59.406 5.38357C59.2607 4.76294 58.8264 4.23705 57.7826 4.23705C56.7387 4.23705 56.2744 4.76294 56.1607 5.38357H59.406Z"
        fill="#A2FF00" />
    <path
        d="M66.74 1.41821H72.0715C74.3756 1.41821 75.5853 2.62633 75.5853 5.1073C75.5853 8.00046 73.8702 8.79639 71.7509 8.79639H66.74V1.41821ZM69.2004 7.13978H71.2534C72.659 7.13978 73.0411 6.11643 73.0411 5.08677C73.0411 3.71284 72.381 3.0622 71.0576 3.0622H69.2004V7.13978Z"
        fill="#A2FF00" />
    <path
        d="M83.9252 7.13968C83.6567 8.06985 82.5923 9.03476 80.2061 9.03476C77.6793 9.03476 76.2786 8.07458 76.2786 5.99789C76.2786 4.01438 77.8294 2.97998 80.1445 2.97998C82.5402 2.97998 84.0294 4.02385 84.0294 6.35954V6.51746H78.5321C78.6458 7.24075 79.1638 7.76664 80.2882 7.76664C80.544 7.78026 80.7992 7.72958 81.0303 7.61924C81.2615 7.50889 81.4614 7.34239 81.6116 7.13494L83.9252 7.13968ZM81.7759 5.38357C81.6322 4.76294 81.1979 4.23705 80.154 4.23705C79.1101 4.23705 78.6458 4.76294 78.5321 5.38357H81.7759Z"
        fill="#A2FF00" />
    <path
        d="M84.38 3.19165H86.7489L87.9064 6.87126H87.927L89.1903 3.19165H91.1739L92.4372 6.87126H92.4815L93.6391 3.19165H96.0079L93.9817 8.79319H91.3855L90.2074 5.49575H90.1868L89.0072 8.79635H86.4062L84.38 3.19165Z"
        fill="#A2FF00" />
    <path
        d="M38.4291 12.1934H42.025L43.71 17.059H43.7306L45.4203 12.1934H49.0163V19.57H46.6948V14.0584H46.6743L44.7318 19.5763H42.7072L40.7648 14.0584H40.7442V19.5763H38.4291V12.1934Z"
        fill="#A2FF00" />
    <path
        d="M50.3744 12.0132H52.5648V13.335H50.3744V12.0132ZM50.3744 13.9762H52.5648V19.5761H50.3744V13.9762Z"
        fill="#A2FF00" />
    <path
        d="M61.3169 17.2926C60.9868 18.905 59.8956 19.8036 57.4415 19.8036C54.9873 19.8036 53.5155 18.8434 53.5155 16.7762C53.5155 14.7516 55.0347 13.7488 57.4415 13.7488C59.5292 13.7488 61.0169 14.3805 61.2143 16.1571H58.9607C58.847 15.5365 58.4127 15.1954 57.4731 15.1954C56.4402 15.1954 55.8307 15.7528 55.8307 16.7746C55.8307 17.7964 56.4197 18.3538 57.4825 18.3538C58.3101 18.3538 58.847 18.0032 59.0018 17.2894L61.3169 17.2926Z"
        fill="#A2FF00" />
    <path
        d="M62.2155 13.9762H64.3711V15.0816H64.3916C64.6315 14.6934 64.9681 14.374 65.3683 14.1548C65.7686 13.9356 66.2189 13.824 66.6752 13.8309C66.9245 13.8298 67.1735 13.851 67.419 13.894V15.947C67.0287 15.8194 66.62 15.7564 66.2093 15.7607C64.9602 15.7607 64.4011 16.3924 64.4011 17.4141V19.584H62.2155V13.9762Z"
        fill="#A2FF00" />
    <path
        d="M71.7319 13.7488C74.2856 13.7488 75.6595 14.7816 75.6595 16.7762C75.6595 18.7707 74.2856 19.8036 71.7319 19.8036C69.1783 19.8036 67.806 18.7707 67.806 16.7762C67.806 14.7816 69.1799 13.7488 71.7319 13.7488ZM70.1211 16.773C70.1211 17.8374 70.7402 18.3522 71.7319 18.3522C72.7237 18.3522 73.3443 17.8358 73.3443 16.773C73.3443 15.7102 72.7253 15.1938 71.7319 15.1938C70.7386 15.1938 70.1211 15.7118 70.1211 16.773Z"
        fill="#A2FF00" />
    <path
        d="M75.9374 13.9763H77.0855V13.5025C77.0855 12.4697 77.4361 11.8901 79.4418 11.8901C79.87 11.8914 80.2977 11.9193 80.7225 11.9738V13.2135H79.7402C79.3375 13.2135 79.2759 13.3067 79.2759 13.6368V13.9779H80.7225V15.4245H79.2759V19.5778H77.0855V15.4245H75.9374V13.9763ZM81.3526 12.0133H83.543V13.3351H81.3526V12.0133ZM81.3526 13.9763H83.543V19.5763H81.3526V13.9763Z"
        fill="#A2FF00" />
    <path
        d="M84.7432 13.9761H86.872V14.7815H86.8926C87.3363 14.2351 88.1323 13.834 89.2488 13.834C90.6227 13.834 91.6255 14.4957 91.6255 15.887V19.5761H89.4335V16.5487C89.4335 15.8365 89.0403 15.4843 88.2965 15.4843C87.5211 15.4843 86.932 15.9186 86.932 16.8282V19.5761H84.7432V13.9761Z"
        fill="#A2FF00" />
    <path
        d="M92.8636 15.7322C93.0594 14.0693 94.6624 13.8372 96.3664 13.8372C98.402 13.8372 99.9307 14.1688 99.9307 15.7322V18.5638C99.9108 18.9158 99.9896 19.2664 100.158 19.5761H97.9677C97.9016 19.4114 97.8632 19.2369 97.854 19.0597C97.2223 19.6693 96.3348 19.8035 95.2198 19.8035C93.4116 19.8035 92.4814 19.2255 92.4814 18.0569C92.4814 16.7935 93.3279 16.3418 94.8993 16.2281L97.0802 16.0844C97.6471 16.0433 97.7403 15.9265 97.7403 15.6296C97.7403 15.2269 97.3171 15.0295 96.3569 15.0295C95.5404 15.0295 95.1677 15.2474 95.054 15.7322H92.8636ZM97.8035 16.9625C97.5284 17.034 97.2487 17.0868 96.9665 17.1204L95.482 17.2925C95.0382 17.3446 94.8503 17.5199 94.8503 17.861C94.8503 18.3048 95.2419 18.5433 95.831 18.5433C97.0944 18.5433 97.7956 18.079 97.7956 17.3036L97.8035 16.9625Z"
        fill="#A2FF00" />
    <path
        d="M101.193 13.9761H103.321V14.7815H103.342C103.786 14.2351 104.582 13.834 105.698 13.834C107.072 13.834 108.067 14.4957 108.067 15.887V19.5761H105.883V16.5487C105.883 15.8365 105.491 15.4843 104.747 15.4843C103.972 15.4843 103.383 15.9186 103.383 16.8282V19.5761H101.193V13.9761Z"
        fill="#A2FF00" />
    <path
        d="M116.784 17.2926C116.454 18.905 115.363 19.8036 112.91 19.8036C110.458 19.8036 108.983 18.8434 108.983 16.7762C108.983 14.7516 110.502 13.7488 112.91 13.7488C114.997 13.7488 116.486 14.3805 116.682 16.1571H114.433C114.321 15.5365 113.886 15.1954 112.945 15.1954C111.912 15.1954 111.303 15.7528 111.303 16.7746C111.303 17.7964 111.892 18.3538 112.956 18.3538C113.782 18.3538 114.321 18.0032 114.475 17.2894L116.784 17.2926Z"
        fill="#A2FF00" />
    <path
        d="M125.041 17.9131C124.772 18.8433 123.708 19.8082 121.321 19.8082C118.795 19.8082 117.394 18.848 117.394 16.7713C117.394 14.7862 118.945 13.7534 121.258 13.7534C123.656 13.7534 125.145 14.7973 125.145 17.133V17.2909H119.644C119.758 18.0142 120.276 18.5417 121.4 18.5417C121.656 18.5553 121.911 18.5046 122.143 18.3943C122.374 18.2839 122.574 18.1174 122.724 17.91L125.041 17.9131ZM122.891 16.157C122.748 15.5364 122.313 15.0089 121.269 15.0089C120.225 15.0089 119.761 15.5364 119.647 16.157H122.891Z"
        fill="#A2FF00" />
    <path
        d="M38.4291 22.9795H44.536C46.3237 22.9795 46.6332 24.096 46.6332 24.7988C46.6332 25.5015 46.251 26.0906 45.7236 26.2864V26.3069C46.5132 26.4822 47.0059 27.1124 47.0059 28.1562C47.0059 29.0248 46.6032 30.3577 44.3212 30.3577H38.4291V22.9795ZM40.8879 25.8221H43.3373C43.8648 25.8221 44.0922 25.5315 44.0922 25.1904C44.0922 24.8493 43.8648 24.5714 43.3373 24.5714H40.8879V25.8221ZM43.5332 28.7658C44.0606 28.7658 44.4017 28.4879 44.4017 28.0015C44.4017 27.515 44.0606 27.2687 43.5332 27.2687H40.8879V28.7658H43.5332Z"
        fill="#A2FF00" />
    <path
        d="M48.105 26.5137C48.3024 24.8508 49.9037 24.6187 51.6077 24.6187C53.6434 24.6187 55.1736 24.9487 55.1736 26.5137V29.3453C55.153 29.6974 55.2318 30.0482 55.4011 30.3576H53.2059C53.1393 30.1931 53.1008 30.0185 53.0922 29.8412C52.4605 30.4508 51.573 30.585 50.4565 30.585C48.6483 30.585 47.7181 30.0054 47.7181 28.8384C47.7181 27.575 48.5661 27.1233 50.1359 27.0096L52.3168 26.8643C52.8853 26.8233 52.9785 26.7064 52.9785 26.4111C52.9785 26.0068 52.5537 25.811 51.5935 25.811C50.7771 25.811 50.4044 26.0273 50.2907 26.5137H48.105ZM53.0448 27.744C52.7696 27.8149 52.49 27.8676 52.2078 27.9019L50.7297 28.0772C50.2859 28.1293 50.098 28.3046 50.098 28.6457C50.098 29.0895 50.4912 29.3279 51.0803 29.3279C52.3516 29.3279 53.0433 28.8542 53.0433 28.0867L53.0448 27.744Z"
        fill="#A2FF00" />
    <path
        d="M56.4291 24.7576H58.5579V25.563H58.5785C59.0222 25.015 59.8182 24.6155 60.9347 24.6155C62.3086 24.6155 63.3035 25.2772 63.3035 26.6685V30.3544H61.121V27.3302C61.121 26.6164 60.7278 26.2658 59.984 26.2658C59.2086 26.2658 58.6195 26.7001 58.6195 27.6097V30.3544H56.4291V24.7576Z"
        fill="#A2FF00" />
    <path
        d="M64.4691 22.793H66.6595V26.7095L68.8498 24.7575H71.8157L69.232 26.8342L72.0636 30.3543H69.0867L67.4964 28.2366L66.6595 28.9078V30.3543H64.4691V22.793Z"
        fill="#A2FF00" />
    <path d="M76.6891 22.9795H79.148V28.6426H83.6378V30.3545H76.6891V22.9795Z" fill="#A2FF00" />
    <path
        d="M83.7957 24.7577H84.9438V22.9795H87.1342V24.7577H88.5808V26.2043H87.1342V28.4594C87.1342 28.9553 87.2685 29.0374 87.8465 29.0374C88.126 29.0374 88.3329 29.028 88.6219 29.0169V30.3814C88.0705 30.4584 87.514 30.4927 86.9573 30.484C85.5218 30.484 84.9438 30.1334 84.9438 28.9237V26.2074H83.7957V24.7577Z"
        fill="#A2FF00" />
    <path
        d="M94.6624 29.6959H94.6403C94.176 30.2755 93.4116 30.585 92.5131 30.585C90.528 30.585 89.2361 29.489 89.2361 27.5466C89.2361 25.9357 90.4253 24.6124 92.4925 24.6124C93.4732 24.6124 94.2076 24.9282 94.5787 25.4699H94.5992V22.8152H96.7896V30.3544H94.6624V29.6959ZM93.0389 26.1411C92.0377 26.1411 91.4897 26.6275 91.4897 27.5624C91.4897 28.4973 92.0377 28.9837 93.0389 28.9837C94.0733 28.9837 94.5992 28.4262 94.5992 27.5624C94.5992 26.6985 94.0733 26.1411 93.0389 26.1411Z"
        fill="#A2FF00" />
    <path d="M98.2157 28.311H100.536V30.364H98.2157V28.311Z" fill="#A2FF00" />
</svg>
    